<svg id="_034-instagram" data-name="034-instagram" xmlns="http://www.w3.org/2000/svg" width="17.527" height="17.527" viewBox="0 0 17.527 17.527">
  <g id="Gruppe_874" data-name="Gruppe 874">
    <g id="Gruppe_873" data-name="Gruppe 873">
      <path id="Pfad_12911" data-name="Pfad 12911" d="M12.05,0H5.477A5.478,5.478,0,0,0,0,5.477V12.05a5.478,5.478,0,0,0,5.477,5.477H12.05a5.478,5.478,0,0,0,5.477-5.477V5.477A5.478,5.478,0,0,0,12.05,0Zm3.834,12.05a3.838,3.838,0,0,1-3.834,3.834H5.477A3.838,3.838,0,0,1,1.643,12.05V5.477A3.838,3.838,0,0,1,5.477,1.643H12.05a3.838,3.838,0,0,1,3.834,3.834Z" fill="#1d4370"/>
    </g>
  </g>
  <g id="Gruppe_876" data-name="Gruppe 876" transform="translate(4.382 4.382)">
    <g id="Gruppe_875" data-name="Gruppe 875">
      <path id="Pfad_12912" data-name="Pfad 12912" d="M132.382,128a4.382,4.382,0,1,0,4.382,4.382A4.382,4.382,0,0,0,132.382,128Zm0,7.12a2.739,2.739,0,1,1,2.739-2.739A2.742,2.742,0,0,1,132.382,135.12Z" transform="translate(-128 -128)" fill="#1d4370"/>
    </g>
  </g>
  <g id="Gruppe_878" data-name="Gruppe 878" transform="translate(12.89 3.469)">
    <g id="Gruppe_877" data-name="Gruppe 877">
      <circle id="Ellipse_79" data-name="Ellipse 79" cx="0.584" cy="0.584" r="0.584" fill="#1d4370"/>
    </g>
  </g>
</svg>
