<svg width="41" height="40" viewBox="0 0 41 40" fill="none" xmlns="http://www.w3.org/2000/svg">
<path d="M28.1777 15.3333V12.2222C28.1777 10.504 26.7848 9.11108 25.0666 9.11108H9.51101C7.79279 9.11108 6.3999 10.504 6.3999 12.2222V21.5555C6.3999 23.2737 7.79279 24.6666 9.51101 24.6666H12.6221M15.7332 30.8889H31.2888C33.007 30.8889 34.3999 29.496 34.3999 27.7777V18.4444C34.3999 16.7262 33.007 15.3333 31.2888 15.3333H15.7332C14.015 15.3333 12.6221 16.7262 12.6221 18.4444V27.7777C12.6221 29.496 14.015 30.8889 15.7332 30.8889ZM26.6221 23.1111C26.6221 24.8293 25.2292 26.2222 23.511 26.2222C21.7928 26.2222 20.3999 24.8293 20.3999 23.1111C20.3999 21.3929 21.7928 20 23.511 20C25.2292 20 26.6221 21.3929 26.6221 23.1111Z" stroke="url(#paint0_linear_2136_1083)" stroke-width="2" stroke-linecap="round" stroke-linejoin="round"/>
<defs>
<linearGradient id="paint0_linear_2136_1083" x1="6.3999" y1="20" x2="34.3999" y2="20" gradientUnits="userSpaceOnUse">
<stop stop-color="#94C12E"/>
<stop offset="0.494792" stop-color="#04BBF1"/>
<stop offset="1" stop-color="#1D4370"/>
</linearGradient>
</defs>
</svg>
