<svg width="24" height="24" viewBox="0 0 24 24" fill="none" xmlns="http://www.w3.org/2000/svg">
<path fill-rule="evenodd" clip-rule="evenodd" d="M4.01015 4.01003C4.55688 3.46329 5.44331 3.46329 5.99005 4.01003L12.0001 10.0201L18.0101 4.01003C18.5569 3.46329 19.4433 3.46329 19.99 4.01003C20.5368 4.55676 20.5368 5.44319 19.99 5.98993L13.98 12L19.99 18.01C20.5368 18.5568 20.5368 19.4432 19.99 19.9899C19.4433 20.5367 18.5569 20.5367 18.0101 19.9899L12.0001 13.9799L5.99005 19.9899C5.44331 20.5367 4.55688 20.5367 4.01015 19.9899C3.46341 19.4432 3.46341 18.5568 4.01015 18.01L10.0202 12L4.01015 5.98993C3.46341 5.44319 3.46341 4.55676 4.01015 4.01003Z" fill="#040506"/>
</svg>
