<svg xmlns="http://www.w3.org/2000/svg" width="25.494" height="17.527" viewBox="0 0 25.494 17.527">
  <g id="_002-youtube" data-name="002-youtube" transform="translate(-9.029 0)">
    <g id="Gruppe_871" data-name="Gruppe 871" transform="translate(0 0)">
      <path id="Pfad_12909" data-name="Pfad 12909" d="M24.41,81.689c-.692-1.23-1.442-1.456-2.97-1.542-1.526-.1-5.365-.147-8.69-.147s-7.172.043-8.7.145-2.277.312-2.975,1.544S0,85.033,0,88.759v.013c0,3.709.366,5.841,1.079,7.057s1.448,1.453,2.973,1.557,5.366.142,8.7.142,7.164-.053,8.692-.14c1.528-.1,2.279-.327,2.97-1.557.719-1.216,1.082-3.348,1.082-7.057V88.76C25.494,85.033,25.13,82.917,24.41,81.689ZM9.56,93.544v-9.56l7.967,4.78Z" transform="translate(9.029 -80)" fill="#1d4370"/>
    </g>
  </g>
</svg>
